<svg width="192" height="23" fill="none" xmlns="http://www.w3.org/2000/svg"><path d="M10.9 17.101c0-3.553-10.9-.4-10.9-6.529 0-2.758 2.492-5.055 6.852-5.055s6.852 2.297 6.852 5.055v.307H10.9v-.307c0-1.226-1.4-2.452-4.05-2.452-2.648 0-4.048 1.133-4.048 2.36 0 3.095 10.9.092 10.9 6.528 0 2.758-2.49 5.055-6.851 5.055-4.36 0-6.852-2.297-6.852-5.055v-.306h2.803v.306c0 1.226 1.404 2.452 4.049 2.452 2.645 0 4.049-1.133 4.049-2.359zM23.982 5.517c4.297 0 7.786 3.433 7.786 7.661v1.378H18.597c.406 2.696 2.554 4.748 5.7 4.748 1.59 0 3.02-.644 4.08-1.684l1.964 1.99a8.673 8.673 0 01-6.044 2.452c-5.046 0-8.563-3.77-8.563-8.426-.004-4.473 3.702-8.12 8.248-8.12zm-5.137 6.28h9.903c-.591-2.02-2.523-3.522-4.766-3.522a5.475 5.475 0 00-5.137 3.522zm15.26-5.667h2.803v2.146s1.557-2.759 4.825-2.759c3.954 0 6.072 2.728 6.072 6.13v9.807H45V12.26c0-2.208-1.182-3.984-3.737-3.984-2.492 0-4.297 1.683-4.36 3.832v9.346H34.1V6.13h.004zM61.206 17.1c0-3.553-10.901-.4-10.901-6.529 0-2.758 2.491-5.054 6.852-5.054 4.36 0 6.852 2.296 6.852 5.054v.307h-2.803v-.306c0-1.226-1.4-2.452-4.05-2.452-2.649 0-4.048 1.132-4.048 2.358 0 3.096 10.9.094 10.9 6.53 0 2.758-2.491 5.054-6.851 5.054-4.36 0-6.852-2.296-6.852-5.055v-.306h2.803v.306c0 1.226 1.403 2.452 4.049 2.452 2.645 0 4.049-1.133 4.049-2.358zM74.283 5.517c4.297 0 7.786 3.434 7.786 7.662v1.377H68.897c.406 2.697 2.555 4.749 5.701 4.749a5.8 5.8 0 004.08-1.684l1.964 1.99a8.672 8.672 0 01-6.044 2.452c-5.046 0-8.563-3.77-8.563-8.426-.008-4.473 3.698-8.12 8.248-8.12zm-5.141 6.281h9.903c-.591-2.021-2.523-3.522-4.766-3.522a5.48 5.48 0 00-5.137 3.522zM84.563 6.13h2.803v15.325h-2.803V6.13zm0-5.896h2.803v2.758h-2.803V.234zM112.987 17.1c0-3.553-10.901-.4-10.901-6.529 0-2.758 2.492-5.055 6.852-5.055s6.852 2.297 6.852 5.055v.307h-2.803v-.307c0-1.226-1.4-2.452-4.049-2.452-2.649 0-4.049 1.133-4.049 2.36 0 3.095 10.901.092 10.901 6.528 0 2.758-2.492 5.055-6.852 5.055s-6.852-2.297-6.852-5.055v-.306h2.803v.306c0 1.226 1.404 2.452 4.049 2.452 2.645 0 4.049-1.133 4.049-2.359zm13.235 2.208a5.618 5.618 0 003.954-1.626l1.963 1.963a8.397 8.397 0 01-5.917 2.42c-4.641 0-8.41-3.708-8.41-8.274 0-4.566 3.769-8.275 8.41-8.275a8.4 8.4 0 015.917 2.421L130.176 9.9c-1.029-.981-2.429-1.625-3.954-1.625-3.083 0-5.606 2.482-5.606 5.516s2.523 5.517 5.606 5.517zM134.316 0h2.804v8.275s1.557-2.758 4.825-2.758c3.954 0 6.071 2.727 6.071 6.129v9.807h-2.803V12.26c0-2.207-1.182-3.984-3.737-3.984-2.492 0-4.297 1.683-4.36 3.833v9.345h-2.804V0h.004zm24.453 5.516c4.64 0 8.409 3.709 8.409 8.275 0 4.566-3.769 8.274-8.409 8.274-4.641 0-8.41-3.708-8.41-8.274 0-4.566 3.769-8.275 8.41-8.275zm0 13.791c3.083 0 5.606-2.483 5.606-5.516 0-3.034-2.523-5.517-5.606-5.517-3.083 0-5.607 2.483-5.607 5.517 0 3.033 2.524 5.516 5.607 5.516zm18.687-13.791c4.64 0 8.409 3.71 8.409 8.275 0 4.566-3.769 8.275-8.409 8.275-4.64 0-8.409-3.709-8.409-8.275 0-4.566 3.769-8.275 8.409-8.275zm0 13.792c3.083 0 5.606-2.483 5.606-5.517 0-3.034-2.523-5.516-5.606-5.516-3.083 0-5.606 2.482-5.606 5.516s2.523 5.517 5.606 5.517zm10.743 2.145V0h2.803v21.453h-2.803z" fill="#fff"/></svg>