<svg width="192" height="23" viewBox="0 0 192 23" fill="none" xmlns="http://www.w3.org/2000/svg">
<path d="M10.9008 17.1012C10.9008 13.5477 0 16.7017 0 10.5722C0 7.81394 2.49161 5.51733 6.85194 5.51733C11.2123 5.51733 13.7039 7.81394 13.7039 10.5722V10.8787H10.9008V10.5722C10.9008 9.34631 9.50125 8.12042 6.85194 8.12042C4.20262 8.12042 2.80306 9.2532 2.80306 10.4791C2.80306 13.5749 13.7039 10.5722 13.7039 17.0081C13.7039 19.7664 11.2123 22.063 6.85194 22.063C2.49161 22.063 0 19.7664 0 17.0081V16.7017H2.80306V17.0081C2.80306 18.234 4.20657 19.4599 6.85194 19.4599C9.49731 19.4599 10.9008 18.3271 10.9008 17.1012Z" fill="white"/>
<path d="M23.9819 5.5166C28.2792 5.5166 31.7682 8.94987 31.7682 13.1784V14.5556H18.5966C19.0026 17.2518 21.1513 19.304 24.2973 19.304C25.8861 19.304 27.3172 18.66 28.3778 17.6203L30.3411 19.6105C28.7838 21.1118 26.6667 22.0623 24.2973 22.0623C19.251 22.0623 15.7344 18.2915 15.7344 13.6362C15.7304 9.16324 19.4363 5.5166 23.9819 5.5166ZM18.845 11.7974H28.7483C28.157 9.77619 26.2252 8.27486 23.9819 8.27486C21.6165 8.27486 19.6216 9.74515 18.845 11.7974Z" fill="white"/>
<path d="M34.1045 6.13028H36.9076V8.27559C36.9076 8.27559 38.4649 5.51733 41.7331 5.51733C45.6874 5.51733 47.8045 8.24456 47.8045 11.6468V21.4539H45.0014V12.2597C45.0014 10.0524 43.8187 8.27559 41.264 8.27559C38.7724 8.27559 36.9668 9.95925 36.9037 12.1084V21.4539H34.1006V6.13028H34.1045Z" fill="white"/>
<path d="M61.2055 17.1005C61.2055 13.547 50.3047 16.7009 50.3047 10.5715C50.3047 7.81321 52.7963 5.5166 57.1566 5.5166C61.517 5.5166 64.0086 7.81321 64.0086 10.5715V10.8779H61.2055V10.5715C61.2055 9.34557 59.8059 8.11968 57.1566 8.11968C54.5073 8.11968 53.1077 9.25247 53.1077 10.4784C53.1077 13.5741 64.0086 10.5715 64.0086 17.0074C64.0086 19.7656 61.517 22.0623 57.1566 22.0623C52.7963 22.0623 50.3047 19.7656 50.3047 17.0074V16.7009H53.1077V17.0074C53.1077 18.2333 54.5113 19.4592 57.1566 19.4592C59.802 19.4592 61.2055 18.3264 61.2055 17.1005Z" fill="white"/>
<path d="M74.2828 5.51733C78.58 5.51733 82.0691 8.95061 82.0691 13.1792V14.5564H68.8974C69.3034 17.2525 71.4521 19.3048 74.5981 19.3048C76.1869 19.3048 77.618 18.6608 78.6786 17.6211L80.6419 19.6112C79.0846 21.1126 76.9675 22.063 74.5981 22.063C69.5518 22.063 66.0352 18.2922 66.0352 13.6369C66.0273 9.16398 69.7332 5.51733 74.2828 5.51733ZM69.1418 11.7981H79.0452C78.4538 9.77692 76.5221 8.27559 74.2788 8.27559C71.9134 8.27559 69.9224 9.74589 69.1418 11.7981Z" fill="white"/>
<path d="M84.5625 6.13082H87.3656V21.4545H84.5625V6.13082ZM84.5625 0.234131H87.3656V2.99239H84.5625V0.234131Z" fill="white"/>
<path d="M112.987 17.1003C112.987 13.5467 102.086 16.7007 102.086 10.5712C102.086 7.81296 104.578 5.51636 108.938 5.51636C113.298 5.51636 115.79 7.81296 115.79 10.5712V10.8777H112.987V10.5712C112.987 9.34533 111.587 8.11944 108.938 8.11944C106.289 8.11944 104.889 9.25222 104.889 10.4781C104.889 13.5739 115.79 10.5712 115.79 17.0071C115.79 19.7654 113.298 22.062 108.938 22.062C104.578 22.062 102.086 19.7654 102.086 17.0071V16.7007H104.889V17.0071C104.889 18.233 106.293 19.4589 108.938 19.4589C111.583 19.4589 112.987 18.3261 112.987 17.1003Z" fill="white"/>
<path d="M126.222 19.3076C127.747 19.3076 129.151 18.6947 130.176 17.6822L132.139 19.6451C130.614 21.1465 128.528 22.0659 126.222 22.0659C121.581 22.0659 117.812 18.3572 117.812 13.7911C117.812 9.22506 121.581 5.51636 126.222 5.51636C128.528 5.51636 130.614 6.43577 132.139 7.9371L130.176 9.90008C129.147 8.91859 127.747 8.27461 126.222 8.27461C123.139 8.27461 120.616 10.7574 120.616 13.7911C120.616 16.8248 123.139 19.3076 126.222 19.3076Z" fill="white"/>
<path d="M134.316 0H137.12V8.27477C137.12 8.27477 138.677 5.51651 141.945 5.51651C145.899 5.51651 148.016 8.24373 148.016 11.646V21.4531H145.213V12.2589C145.213 10.0515 144.031 8.27477 141.476 8.27477C138.984 8.27477 137.179 9.95843 137.116 12.1076V21.4531H134.312V0H134.316Z" fill="white"/>
<path d="M158.769 5.51587C163.409 5.51587 167.178 9.22458 167.178 13.7906C167.178 18.3567 163.409 22.0654 158.769 22.0654C154.128 22.0654 150.359 18.3567 150.359 13.7906C150.359 9.22458 154.128 5.51587 158.769 5.51587ZM158.769 19.3072C161.852 19.3072 164.375 16.8243 164.375 13.7906C164.375 10.7569 161.852 8.27413 158.769 8.27413C155.686 8.27413 153.162 10.7569 153.162 13.7906C153.162 16.8243 155.686 19.3072 158.769 19.3072Z" fill="white"/>
<path d="M177.456 5.51636C182.096 5.51636 185.865 9.22506 185.865 13.7911C185.865 18.3572 182.096 22.0659 177.456 22.0659C172.816 22.0659 169.047 18.3572 169.047 13.7911C169.047 9.22506 172.816 5.51636 177.456 5.51636ZM177.456 19.3076C180.539 19.3076 183.062 16.8248 183.062 13.7911C183.062 10.7574 180.539 8.27461 177.456 8.27461C174.373 8.27461 171.85 10.7574 171.85 13.7911C171.85 16.8248 174.373 19.3076 177.456 19.3076Z" fill="white"/>
<path d="M188.199 21.4531V0H191.002V21.4531H188.199Z" fill="white"/>
</svg>
